<svg width="307" height="307" viewBox="0 0 307 307" fill="none" xmlns="http://www.w3.org/2000/svg">
<circle cx="153.5" cy="153.5" r="153.5" fill="#D9D9D9"/>
<g filter="url(#filter0_d_0_1)">
<path d="M203.308 142.52V167.87L190.698 180.61H187.318L199.408 205.18H206.818V220H177.308V205.18H183.938L171.848 180.61H160.408V205.18H166.908V220H136.358V205.18H145.458V144.08H136.358V129H189.918L203.308 142.52ZM160.408 144.08V169.69H183.158L188.358 164.49V149.28L183.158 144.08H160.408Z" fill="#133E79"/>
<path d="M203.308 142.52H206.308V141.286L205.44 140.409L203.308 142.52ZM203.308 167.87L205.441 169.98L206.308 169.104V167.87H203.308ZM190.698 180.61V183.61H191.95L192.831 182.72L190.698 180.61ZM187.318 180.61V177.61H182.499L184.627 181.935L187.318 180.61ZM199.408 205.18L196.717 206.505L197.541 208.18H199.408V205.18ZM206.818 205.18H209.818V202.18H206.818V205.18ZM206.818 220V223H209.818V220H206.818ZM177.308 220H174.308V223H177.308V220ZM177.308 205.18V202.18H174.308V205.18H177.308ZM183.938 205.18V208.18H188.758L186.63 203.855L183.938 205.18ZM171.848 180.61L174.54 179.285L173.716 177.61H171.848V180.61ZM160.408 180.61V177.61H157.408V180.61H160.408ZM160.408 205.18H157.408V208.18H160.408V205.18ZM166.908 205.18H169.908V202.18H166.908V205.18ZM166.908 220V223H169.908V220H166.908ZM136.358 220H133.358V223H136.358V220ZM136.358 205.18V202.18H133.358V205.18H136.358ZM145.458 205.18V208.18H148.458V205.18H145.458ZM145.458 144.08H148.458V141.08H145.458V144.08ZM136.358 144.08H133.358V147.08H136.358V144.08ZM136.358 129V126H133.358V129H136.358ZM189.918 129L192.05 126.889L191.17 126H189.918V129ZM160.408 144.08V141.08H157.408V144.08H160.408ZM160.408 169.69H157.408V172.69H160.408V169.69ZM183.158 169.69V172.69H184.401L185.28 171.811L183.158 169.69ZM188.358 164.49L190.48 166.611L191.358 165.733V164.49H188.358ZM188.358 149.28H191.358V148.037L190.48 147.159L188.358 149.28ZM183.158 144.08L185.28 141.959L184.401 141.08H183.158V144.08ZM200.308 142.52V167.87H206.308V142.52H200.308ZM201.176 165.76L188.566 178.5L192.831 182.72L205.441 169.98L201.176 165.76ZM190.698 177.61H187.318V183.61H190.698V177.61ZM184.627 181.935L196.717 206.505L202.1 203.855L190.01 179.285L184.627 181.935ZM199.408 208.18H206.818V202.18H199.408V208.18ZM203.818 205.18V220H209.818V205.18H203.818ZM206.818 217H177.308V223H206.818V217ZM180.308 220V205.18H174.308V220H180.308ZM177.308 208.18H183.938V202.18H177.308V208.18ZM186.63 203.855L174.54 179.285L169.157 181.935L181.247 206.505L186.63 203.855ZM171.848 177.61H160.408V183.61H171.848V177.61ZM157.408 180.61V205.18H163.408V180.61H157.408ZM160.408 208.18H166.908V202.18H160.408V208.18ZM163.908 205.18V220H169.908V205.18H163.908ZM166.908 217H136.358V223H166.908V217ZM139.358 220V205.18H133.358V220H139.358ZM136.358 208.18H145.458V202.18H136.358V208.18ZM148.458 205.18V144.08H142.458V205.18H148.458ZM145.458 141.08H136.358V147.08H145.458V141.08ZM139.358 144.08V129H133.358V144.08H139.358ZM136.358 132H189.918V126H136.358V132ZM187.787 131.111L201.177 144.631L205.44 140.409L192.05 126.889L187.787 131.111ZM157.408 144.08V169.69H163.408V144.08H157.408ZM160.408 172.69H183.158V166.69H160.408V172.69ZM185.28 171.811L190.48 166.611L186.237 162.369L181.037 167.569L185.28 171.811ZM191.358 164.49V149.28H185.358V164.49H191.358ZM190.48 147.159L185.28 141.959L181.037 146.201L186.237 151.401L190.48 147.159ZM183.158 141.08H160.408V147.08H183.158V141.08Z" fill="black"/>
</g>
<g filter="url(#filter1_d_0_1)">
<path d="M167.42 119.68H144.93V114.09L142.33 111.49H129.85L127.25 114.09V124.49L129.46 126.7H155.59L168.2 138.53V164.66L152.73 180H120.23L104.76 164.66V148.28H127.25V154.91L129.98 157.64H142.98L145.71 154.91V143.73L143.63 141.52H117.63L104.76 128.78V103.82L119.45 89H152.6L167.42 103.82V119.68Z" fill="#008940"/>
<path d="M167.42 119.68V122.68H170.42V119.68H167.42ZM144.93 119.68H141.93V122.68H144.93V119.68ZM144.93 114.09H147.93V112.847L147.051 111.969L144.93 114.09ZM142.33 111.49L144.451 109.369L143.572 108.49H142.33V111.49ZM129.85 111.49V108.49H128.607L127.728 109.369L129.85 111.49ZM127.25 114.09L125.128 111.969L124.25 112.847V114.09H127.25ZM127.25 124.49H124.25V125.733L125.128 126.611L127.25 124.49ZM129.46 126.7L127.338 128.821L128.217 129.7H129.46V126.7ZM155.59 126.7L157.642 124.512L156.777 123.7H155.59V126.7ZM168.2 138.53H171.2V137.231L170.252 136.342L168.2 138.53ZM168.2 164.66L170.312 166.79L171.2 165.91V164.66H168.2ZM152.73 180V183H153.965L154.842 182.13L152.73 180ZM120.23 180L118.117 182.13L118.994 183H120.23V180ZM104.76 164.66H101.76V165.91L102.647 166.79L104.76 164.66ZM104.76 148.28V145.28H101.76V148.28H104.76ZM127.25 148.28H130.25V145.28H127.25V148.28ZM127.25 154.91H124.25V156.153L125.128 157.031L127.25 154.91ZM129.98 157.64L127.858 159.761L128.737 160.64H129.98V157.64ZM142.98 157.64V160.64H144.222L145.101 159.761L142.98 157.64ZM145.71 154.91L147.831 157.031L148.71 156.153V154.91H145.71ZM145.71 143.73H148.71V142.54L147.894 141.674L145.71 143.73ZM143.63 141.52L145.814 139.464L144.926 138.52H143.63V141.52ZM117.63 141.52L115.519 143.652L116.396 144.52H117.63V141.52ZM104.76 128.78H101.76V130.032L102.649 130.912L104.76 128.78ZM104.76 103.82L102.629 101.708L101.76 102.585V103.82H104.76ZM119.45 89V86H118.199L117.319 86.888L119.45 89ZM152.6 89L154.721 86.8787L153.842 86H152.6V89ZM167.42 103.82H170.42V102.577L169.541 101.699L167.42 103.82ZM167.42 116.68H144.93V122.68H167.42V116.68ZM147.93 119.68V114.09H141.93V119.68H147.93ZM147.051 111.969L144.451 109.369L140.208 113.611L142.808 116.211L147.051 111.969ZM142.33 108.49H129.85V114.49H142.33V108.49ZM127.728 109.369L125.128 111.969L129.371 116.211L131.971 113.611L127.728 109.369ZM124.25 114.09V124.49H130.25V114.09H124.25ZM125.128 126.611L127.338 128.821L131.581 124.579L129.371 122.369L125.128 126.611ZM129.46 129.7H155.59V123.7H129.46V129.7ZM153.537 128.888L166.147 140.718L170.252 136.342L157.642 124.512L153.537 128.888ZM165.2 138.53V164.66H171.2V138.53H165.2ZM166.087 162.53L150.617 177.87L154.842 182.13L170.312 166.79L166.087 162.53ZM152.73 177H120.23V183H152.73V177ZM122.342 177.87L106.872 162.53L102.647 166.79L118.117 182.13L122.342 177.87ZM107.76 164.66V148.28H101.76V164.66H107.76ZM104.76 151.28H127.25V145.28H104.76V151.28ZM124.25 148.28V154.91H130.25V148.28H124.25ZM125.128 157.031L127.858 159.761L132.101 155.519L129.371 152.789L125.128 157.031ZM129.98 160.64H142.98V154.64H129.98V160.64ZM145.101 159.761L147.831 157.031L143.588 152.789L140.858 155.519L145.101 159.761ZM148.71 154.91V143.73H142.71V154.91H148.71ZM147.894 141.674L145.814 139.464L141.445 143.576L143.525 145.786L147.894 141.674ZM143.63 138.52H117.63V144.52H143.63V138.52ZM119.74 139.388L106.87 126.648L102.649 130.912L115.519 143.652L119.74 139.388ZM107.76 128.78V103.82H101.76V128.78H107.76ZM106.89 105.932L121.58 91.1119L117.319 86.888L102.629 101.708L106.89 105.932ZM119.45 92H152.6V86H119.45V92ZM150.478 91.1213L165.298 105.941L169.541 101.699L154.721 86.8787L150.478 91.1213ZM164.42 103.82V119.68H170.42V103.82H164.42Z" fill="black"/>
</g>
<defs>
<filter id="filter0_d_0_1" x="132.358" y="129" width="78.46" height="99" filterUnits="userSpaceOnUse" color-interpolation-filters="sRGB">
<feFlood flood-opacity="0" result="BackgroundImageFix"/>
<feColorMatrix in="SourceAlpha" type="matrix" values="0 0 0 0 0 0 0 0 0 0 0 0 0 0 0 0 0 0 127 0" result="hardAlpha"/>
<feOffset dy="4"/>
<feGaussianBlur stdDeviation="2"/>
<feComposite in2="hardAlpha" operator="out"/>
<feColorMatrix type="matrix" values="0 0 0 0 0 0 0 0 0 0 0 0 0 0 0 0 0 0 0.25 0"/>
<feBlend mode="normal" in2="BackgroundImageFix" result="effect1_dropShadow_0_1"/>
<feBlend mode="normal" in="SourceGraphic" in2="effect1_dropShadow_0_1" result="shape"/>
</filter>
<filter id="filter1_d_0_1" x="100.76" y="89" width="71.44" height="99" filterUnits="userSpaceOnUse" color-interpolation-filters="sRGB">
<feFlood flood-opacity="0" result="BackgroundImageFix"/>
<feColorMatrix in="SourceAlpha" type="matrix" values="0 0 0 0 0 0 0 0 0 0 0 0 0 0 0 0 0 0 127 0" result="hardAlpha"/>
<feOffset dy="4"/>
<feGaussianBlur stdDeviation="2"/>
<feComposite in2="hardAlpha" operator="out"/>
<feColorMatrix type="matrix" values="0 0 0 0 0 0 0 0 0 0 0 0 0 0 0 0 0 0 0.25 0"/>
<feBlend mode="normal" in2="BackgroundImageFix" result="effect1_dropShadow_0_1"/>
<feBlend mode="normal" in="SourceGraphic" in2="effect1_dropShadow_0_1" result="shape"/>
</filter>
</defs>
</svg>
