<svg width="212" height="212" viewBox="0 0 212 212" fill="none" xmlns="http://www.w3.org/2000/svg">
<circle cx="106" cy="106" r="106" fill="#D9D9D9"/>
<g filter="url(#filter0_d_0_1)">
<path d="M157.308 102.52V127.87L144.698 140.61H141.318L153.408 165.18H160.818V180H131.308V165.18H137.938L125.848 140.61H114.408V165.18H120.908V180H90.3584V165.18H99.4584V104.08H90.3584V89H143.918L157.308 102.52ZM114.408 104.08V129.69H137.158L142.358 124.49V109.28L137.158 104.08H114.408Z" fill="#133E79"/>
<path d="M157.308 102.52H160.308V101.286L159.44 100.409L157.308 102.52ZM157.308 127.87L159.441 129.98L160.308 129.104V127.87H157.308ZM144.698 140.61V143.61H145.95L146.831 142.72L144.698 140.61ZM141.318 140.61V137.61H136.499L138.627 141.935L141.318 140.61ZM153.408 165.18L150.717 166.505L151.541 168.18H153.408V165.18ZM160.818 165.18H163.818V162.18H160.818V165.18ZM160.818 180V183H163.818V180H160.818ZM131.308 180H128.308V183H131.308V180ZM131.308 165.18V162.18H128.308V165.18H131.308ZM137.938 165.18V168.18H142.758L140.63 163.855L137.938 165.18ZM125.848 140.61L128.54 139.285L127.716 137.61H125.848V140.61ZM114.408 140.61V137.61H111.408V140.61H114.408ZM114.408 165.18H111.408V168.18H114.408V165.18ZM120.908 165.18H123.908V162.18H120.908V165.18ZM120.908 180V183H123.908V180H120.908ZM90.3584 180H87.3584V183H90.3584V180ZM90.3584 165.18V162.18H87.3584V165.18H90.3584ZM99.4584 165.18V168.18H102.458V165.18H99.4584ZM99.4584 104.08H102.458V101.08H99.4584V104.08ZM90.3584 104.08H87.3584V107.08H90.3584V104.08ZM90.3584 89V86H87.3584V89H90.3584ZM143.918 89L146.05 86.8889L145.17 86H143.918V89ZM114.408 104.08V101.08H111.408V104.08H114.408ZM114.408 129.69H111.408V132.69H114.408V129.69ZM137.158 129.69V132.69H138.401L139.28 131.811L137.158 129.69ZM142.358 124.49L144.48 126.611L145.358 125.733V124.49H142.358ZM142.358 109.28H145.358V108.037L144.48 107.159L142.358 109.28ZM137.158 104.08L139.28 101.959L138.401 101.08H137.158V104.08ZM154.308 102.52V127.87H160.308V102.52H154.308ZM155.176 125.76L142.566 138.5L146.831 142.72L159.441 129.98L155.176 125.76ZM144.698 137.61H141.318V143.61H144.698V137.61ZM138.627 141.935L150.717 166.505L156.1 163.855L144.01 139.285L138.627 141.935ZM153.408 168.18H160.818V162.18H153.408V168.18ZM157.818 165.18V180H163.818V165.18H157.818ZM160.818 177H131.308V183H160.818V177ZM134.308 180V165.18H128.308V180H134.308ZM131.308 168.18H137.938V162.18H131.308V168.18ZM140.63 163.855L128.54 139.285L123.157 141.935L135.247 166.505L140.63 163.855ZM125.848 137.61H114.408V143.61H125.848V137.61ZM111.408 140.61V165.18H117.408V140.61H111.408ZM114.408 168.18H120.908V162.18H114.408V168.18ZM117.908 165.18V180H123.908V165.18H117.908ZM120.908 177H90.3584V183H120.908V177ZM93.3584 180V165.18H87.3584V180H93.3584ZM90.3584 168.18H99.4584V162.18H90.3584V168.18ZM102.458 165.18V104.08H96.4584V165.18H102.458ZM99.4584 101.08H90.3584V107.08H99.4584V101.08ZM93.3584 104.08V89H87.3584V104.08H93.3584ZM90.3584 92H143.918V86H90.3584V92ZM141.787 91.111L155.177 104.631L159.44 100.409L146.05 86.8889L141.787 91.111ZM111.408 104.08V129.69H117.408V104.08H111.408ZM114.408 132.69H137.158V126.69H114.408V132.69ZM139.28 131.811L144.48 126.611L140.237 122.369L135.037 127.569L139.28 131.811ZM145.358 124.49V109.28H139.358V124.49H145.358ZM144.48 107.159L139.28 101.959L135.037 106.201L140.237 111.401L144.48 107.159ZM137.158 101.08H114.408V107.08H137.158V101.08Z" fill="black"/>
</g>
<g filter="url(#filter1_d_0_1)">
<path d="M113.42 66.68H90.9297V61.09L88.3297 58.49H75.8497L73.2497 61.09V71.49L75.4597 73.7H101.59L114.2 85.53V111.66L98.7297 127H66.2297L50.7597 111.66V95.28H73.2497V101.91L75.9797 104.64H88.9797L91.7097 101.91V90.73L89.6297 88.52H63.6297L50.7597 75.78V50.82L65.4497 36H98.5997L113.42 50.82V66.68Z" fill="#008940"/>
<path d="M113.42 66.68V69.68H116.42V66.68H113.42ZM90.9297 66.68H87.9297V69.68H90.9297V66.68ZM90.9297 61.09H93.9297V59.8474L93.051 58.9687L90.9297 61.09ZM88.3297 58.49L90.451 56.3687L89.5723 55.49H88.3297V58.49ZM75.8497 58.49V55.49H74.607L73.7284 56.3687L75.8497 58.49ZM73.2497 61.09L71.1284 58.9687L70.2497 59.8474V61.09H73.2497ZM73.2497 71.49H70.2497V72.7326L71.1284 73.6113L73.2497 71.49ZM75.4597 73.7L73.3384 75.8213L74.217 76.7H75.4597V73.7ZM101.59 73.7L103.642 71.5121L102.777 70.7H101.59V73.7ZM114.2 85.53H117.2V84.2309L116.252 83.3421L114.2 85.53ZM114.2 111.66L116.312 113.79L117.2 112.91V111.66H114.2ZM98.7297 127V130H99.9649L100.842 129.13L98.7297 127ZM66.2297 127L64.1173 129.13L64.9945 130H66.2297V127ZM50.7597 111.66H47.7597V112.91L48.6473 113.79L50.7597 111.66ZM50.7597 95.28V92.28H47.7597V95.28H50.7597ZM73.2497 95.28H76.2497V92.28H73.2497V95.28ZM73.2497 101.91H70.2497V103.153L71.1284 104.031L73.2497 101.91ZM75.9797 104.64L73.8584 106.761L74.737 107.64H75.9797V104.64ZM88.9797 104.64V107.64H90.2223L91.101 106.761L88.9797 104.64ZM91.7097 101.91L93.831 104.031L94.7097 103.153V101.91H91.7097ZM91.7097 90.73H94.7097V89.5403L93.8943 88.6739L91.7097 90.73ZM89.6297 88.52L91.8143 86.4639L90.9259 85.52H89.6297V88.52ZM63.6297 88.52L61.5192 90.6521L62.396 91.52H63.6297V88.52ZM50.7597 75.78H47.7597V77.0316L48.6492 77.9121L50.7597 75.78ZM50.7597 50.82L48.629 48.708L47.7597 49.5851V50.82H50.7597ZM65.4497 36V33H64.1993L63.319 33.888L65.4497 36ZM98.5997 36L100.721 33.8787L99.8423 33H98.5997V36ZM113.42 50.82H116.42V49.5774L115.541 48.6987L113.42 50.82ZM113.42 63.68H90.9297V69.68H113.42V63.68ZM93.9297 66.68V61.09H87.9297V66.68H93.9297ZM93.051 58.9687L90.451 56.3687L86.2084 60.6113L88.8084 63.2113L93.051 58.9687ZM88.3297 55.49H75.8497V61.49H88.3297V55.49ZM73.7284 56.3687L71.1284 58.9687L75.371 63.2113L77.971 60.6113L73.7284 56.3687ZM70.2497 61.09V71.49H76.2497V61.09H70.2497ZM71.1284 73.6113L73.3384 75.8213L77.581 71.5787L75.371 69.3687L71.1284 73.6113ZM75.4597 76.7H101.59V70.7H75.4597V76.7ZM99.5371 75.8879L112.147 87.7179L116.252 83.3421L103.642 71.5121L99.5371 75.8879ZM111.2 85.53V111.66H117.2V85.53H111.2ZM112.087 109.53L96.6173 124.87L100.842 129.13L116.312 113.79L112.087 109.53ZM98.7297 124H66.2297V130H98.7297V124ZM68.342 124.87L52.872 109.53L48.6473 113.79L64.1173 129.13L68.342 124.87ZM53.7597 111.66V95.28H47.7597V111.66H53.7597ZM50.7597 98.28H73.2497V92.28H50.7597V98.28ZM70.2497 95.28V101.91H76.2497V95.28H70.2497ZM71.1284 104.031L73.8584 106.761L78.101 102.519L75.371 99.7887L71.1284 104.031ZM75.9797 107.64H88.9797V101.64H75.9797V107.64ZM91.101 106.761L93.831 104.031L89.5884 99.7887L86.8584 102.519L91.101 106.761ZM94.7097 101.91V90.73H88.7097V101.91H94.7097ZM93.8943 88.6739L91.8143 86.4639L87.4451 90.5761L89.5251 92.7861L93.8943 88.6739ZM89.6297 85.52H63.6297V91.52H89.6297V85.52ZM65.7402 86.3879L52.8702 73.6479L48.6492 77.9121L61.5192 90.6521L65.7402 86.3879ZM53.7597 75.78V50.82H47.7597V75.78H53.7597ZM52.8903 52.9319L67.5803 38.1119L63.319 33.888L48.629 48.708L52.8903 52.9319ZM65.4497 39H98.5997V33H65.4497V39ZM96.4784 38.1213L111.298 52.9413L115.541 48.6987L100.721 33.8787L96.4784 38.1213ZM110.42 50.82V66.68H116.42V50.82H110.42Z" fill="black"/>
</g>
<defs>
<filter id="filter0_d_0_1" x="86.3584" y="89" width="78.46" height="99" filterUnits="userSpaceOnUse" color-interpolation-filters="sRGB">
<feFlood flood-opacity="0" result="BackgroundImageFix"/>
<feColorMatrix in="SourceAlpha" type="matrix" values="0 0 0 0 0 0 0 0 0 0 0 0 0 0 0 0 0 0 127 0" result="hardAlpha"/>
<feOffset dy="4"/>
<feGaussianBlur stdDeviation="2"/>
<feComposite in2="hardAlpha" operator="out"/>
<feColorMatrix type="matrix" values="0 0 0 0 0 0 0 0 0 0 0 0 0 0 0 0 0 0 0.25 0"/>
<feBlend mode="normal" in2="BackgroundImageFix" result="effect1_dropShadow_0_1"/>
<feBlend mode="normal" in="SourceGraphic" in2="effect1_dropShadow_0_1" result="shape"/>
</filter>
<filter id="filter1_d_0_1" x="46.7597" y="36" width="71.44" height="99" filterUnits="userSpaceOnUse" color-interpolation-filters="sRGB">
<feFlood flood-opacity="0" result="BackgroundImageFix"/>
<feColorMatrix in="SourceAlpha" type="matrix" values="0 0 0 0 0 0 0 0 0 0 0 0 0 0 0 0 0 0 127 0" result="hardAlpha"/>
<feOffset dy="4"/>
<feGaussianBlur stdDeviation="2"/>
<feComposite in2="hardAlpha" operator="out"/>
<feColorMatrix type="matrix" values="0 0 0 0 0 0 0 0 0 0 0 0 0 0 0 0 0 0 0.25 0"/>
<feBlend mode="normal" in2="BackgroundImageFix" result="effect1_dropShadow_0_1"/>
<feBlend mode="normal" in="SourceGraphic" in2="effect1_dropShadow_0_1" result="shape"/>
</filter>
</defs>
</svg>
